<?xml version="1.0" standalone="no"?>
<!DOCTYPE svg PUBLIC "-//W3C//DTD SVG 1.1//EN" "http://www.w3.org/Graphics/SVG/1.1/DTD/svg11.dtd" >
<svg xmlns="http://www.w3.org/2000/svg">
<metadata>Generated by IcoMoon</metadata>
<defs>
<font id="icomoon" horiz-adv-x="1024">
<font-face units-per-em="1024" ascent="960" descent="-64" />
<missing-glyph horiz-adv-x="1024" />
<glyph unicode="&#x20;" horiz-adv-x="512" d="" />
<glyph unicode="&#xe900;" d="M330.304 748.312c-3.695 0-7.437 1.242-10.516 3.789l-115.609 95.625c-7.016 5.812-8.016 16.219-2.195 23.25 5.773 7.039 16.195 8.047 23.258 2.195l115.609-95.617c7.016-5.812 8.016-16.227 2.195-23.25-3.258-3.953-7.984-5.992-12.742-5.992z" />
<glyph unicode="&#xe901;" d="M458.663 870.976c-5.773 7.023-16.195 8.031-23.258 2.203l-88.562-73.25v93.555c0 9.117-7.391 16.516-16.523 16.516-9.125 0-16.516-7.398-16.516-16.516v-128.937c0-0.367 0.016-0.367 0.039-0.18 0.094-3.555 1.305-7.109 3.758-10.062 3.258-3.953 7.977-5.992 12.742-5.992 3.687 0 7.43 1.242 10.516 3.789l115.609 95.625c7.016 5.812 8.016 16.227 2.195 23.25z" />
<glyph unicode="&#xe902;" d="M330.32 764.828c52.851 0 66.062 29.562 132.133 29.562 82.578 0 198.195-59.117 198.195-221.664 0-146.906-65.797-339.89-330.327-339.89-264.523 0-330.32 192.976-330.32 339.882 0 162.554 115.609 221.664 198.195 221.664 66.062 0 79.273-29.555 132.125-29.555z" />
<glyph unicode="&#xe903;" d="M429.421 315.414c-264.531 0-330.32 192.984-330.32 339.89 0 52.5 12.352 94.226 31.461 126.64-66.625-24.781-130.562-88.531-130.562-209.218 0-146.906 65.797-339.89 330.32-339.89 133.5 0 216.336 49.18 265.687 116.75-43.961-21.391-98.687-34.172-166.586-34.172z" />
<glyph unicode="&#xe904;" d="M693.678 517.086c52.851 0 66.062 29.562 132.125 29.562 82.586 0 198.195-59.117 198.195-221.664 0-146.906-65.797-339.89-330.32-339.89s-330.32 192.984-330.32 339.89c0 162.547 115.609 221.664 198.195 221.664 66.055-0.008 79.273-29.562 132.125-29.562z" />
<glyph unicode="&#xe905;" d="M933.842 472.156c-29.016 25.953-69.398 41.453-108.039 41.453-28.383 0-43.75-6.281-61.539-13.555-18.352-7.5-39.148-16-70.586-16-31.445 0-52.242 8.5-70.586 16-17.797 7.273-33.164 13.555-61.547 13.555-57.125 0-165.156-39.422-165.156-188.632 0-92.258 28.969-306.851 297.288-306.851s297.288 214.593 297.288 306.851c0 63.75-19.219 113.265-57.125 147.179z" />
<glyph unicode="&#xe906;" d="M772.1 381.485c-25.070 0-45.391 20.32-45.391 45.391v94.648c-9.547-2.672-20.094-4.437-33.031-4.437-12.945 0-23.484 1.766-33.031 4.437v-94.648c0-25.070-20.328-45.391-45.398-45.391-54.258 0-101.578-41.812-103.203-96.047-1.68-56.125 43.312-102.148 99.054-102.148h25.68c11.437-19.664 32.508-33.031 56.898-33.031s45.461 13.367 56.898 33.031h25.687c55.742 0 100.726 46.023 99.047 102.148-1.633 54.234-48.945 96.047-103.211 96.047z" />
<glyph unicode="&#xe907;" d="M545.343 288.875c3.281 34.351 34.094 59.57 68.594 59.57h3.258c19.703 0 35.516 16.234 35.18 35.93-0.508 30.617-19.227 58.047-47.648 69.656l-0.383 0.156c-16.078 6.578-24.148 9.875-42.797 9.875-11.828 0-115.609-3.906-115.609-139.086 0-93.515 27.352-201.289 142.015-241.242 31.602-11.016 64.437 13.789 64.437 47.266v44.031c0 22.805-18.492 41.289-41.289 41.289-38.633 0-69.515 33.156-65.758 72.555z" />
<glyph unicode="&#xe908;" d="M587.694 354.633c-6.711 0-13 4.117-15.484 10.766l-11.273 30.336c-3.18 8.555 1.18 18.062 9.727 21.242 8.562 3.117 18.047-1.18 21.242-9.727l11.273-30.336c3.18-8.555-1.18-18.062-9.727-21.242-1.906-0.695-3.844-1.039-5.758-1.039z" />
<glyph unicode="&#xe909;" d="M533.999 329.188c-3.594 0-7.211 1.164-10.258 3.578l-19.516 15.492c-7.148 5.672-8.336 16.055-2.664 23.203 5.664 7.148 16.031 8.352 23.211 2.672l19.516-15.492c7.148-5.672 8.336-16.062 2.664-23.203-3.258-4.117-8.086-6.25-12.953-6.25z" />
<glyph unicode="&#xe90a;" d="M523.851 192.649c-4.5 0-8.984 1.836-12.258 5.445-6.109 6.766-5.578 17.211 1.18 23.32l17.047 15.414c6.758 6.109 17.195 5.609 23.336-1.18 6.117-6.766 5.586-17.211-1.172-23.32l-17.047-15.414c-3.164-2.852-7.133-4.266-11.086-4.266z" />
<glyph unicode="&#xe90b;" d="M571.163 138.547c-2.242 0-4.531 0.469-6.727 1.445-8.32 3.727-12.062 13.492-8.336 21.812l14.445 32.344c3.711 8.328 13.437 12.078 21.828 8.352 8.32-3.727 12.062-13.492 8.336-21.82l-14.453-32.344c-2.742-6.141-8.773-9.789-15.094-9.789z" />
<glyph unicode="&#xe90c;" d="M523.694 265.961h-19.875c-9.125 0-16.516 7.391-16.516 16.516 0 9.117 7.391 16.516 16.516 16.516h19.875c9.125 0 16.516-7.398 16.516-16.516 0-9.125-7.391-16.516-16.516-16.516z" />
<glyph unicode="&#xe90d;" d="M842.014 288.875c-3.281 34.351-34.094 59.57-68.601 59.57h-3.258c-19.695 0-35.508 16.234-35.18 35.93 0.516 30.617 19.227 58.047 47.656 69.656l0.375 0.156c16.078 6.578 24.148 9.875 42.797 9.875 11.836 0 115.617-3.906 115.617-139.086 0-93.515-27.352-201.289-142.015-241.242-31.609-11.016-64.437 13.789-64.437 47.266v44.031c0 22.805 18.484 41.289 41.289 41.289 38.625 0 69.515 33.156 65.758 72.555z" />
<glyph unicode="&#xe90e;" d="M799.663 354.633c6.711 0 13 4.117 15.484 10.766l11.273 30.336c3.18 8.555-1.18 18.062-9.727 21.242-8.562 3.117-18.047-1.18-21.242-9.727l-11.273-30.336c-3.18-8.555 1.18-18.062 9.727-21.242 1.898-0.695 3.836-1.039 5.758-1.039z" />
<glyph unicode="&#xe90f;" d="M853.35 329.188c3.602 0 7.211 1.164 10.258 3.578l19.516 15.492c7.148 5.672 8.344 16.055 2.664 23.203-5.664 7.148-16.031 8.352-23.211 2.672l-19.516-15.492c-7.141-5.672-8.336-16.062-2.664-23.203 3.266-4.117 8.086-6.25 12.953-6.25z" />
<glyph unicode="&#xe910;" d="M863.498 192.649c4.5 0 8.984 1.836 12.258 5.445 6.109 6.766 5.578 17.211-1.18 23.32l-17.047 15.414c-6.758 6.109-17.195 5.609-23.336-1.18-6.117-6.766-5.578-17.211 1.18-23.32l17.047-15.414c3.156-2.852 7.125-4.266 11.078-4.266z" />
<glyph unicode="&#xe911;" d="M816.194 138.547c2.242 0 4.531 0.469 6.727 1.445 8.32 3.727 12.062 13.492 8.336 21.812l-14.453 32.344c-3.711 8.328-13.437 12.078-21.82 8.352-8.32-3.727-12.062-13.492-8.336-21.82l14.453-32.344c2.734-6.141 8.766-9.789 15.094-9.789z" />
<glyph unicode="&#xe912;" d="M863.662 265.961h19.867c9.133 0 16.516 7.391 16.516 16.516 0 9.117-7.391 16.516-16.516 16.516h-19.867c-9.133 0-16.516-7.398-16.516-16.516 0-9.125 7.383-16.516 16.516-16.516z" />
<glyph unicode="&#xe915;" glyph-name="usuario1" d="M256 716.8c0 141.385 114.615 256 256 256s256-114.615 256-256v0-102.4c0-141.385-114.615-256-256-256s-256 114.615-256 256v0 102.4zM0 118.784c146.431 86.26 322.601 137.217 510.673 137.217 0.466 0 0.933 0 1.399-0.001h-0.072c186.368 0 361.472-49.664 512-137.216v-169.984h-1024v169.984z" />
<glyph unicode="&#xe916;" d="M934.297 431.58l-156.185 270.316c-5.404 9.013-15.618 13.818-25.83 13.818s-20.426-4.808-25.83-13.818l-156.185-270.316c-18.622-31.835-28.231-68.48-28.231-105.123 0-115.936 94.31-210.246 210.246-210.246s210.246 94.31 210.246 210.246c0 36.641-9.611 73.288-28.231 105.123z" />
<glyph unicode="&#xe917;" d="M453.735 251.369l-156.185 270.316c-5.404 9.013-15.618 13.818-25.83 13.818s-20.426-4.808-25.83-13.818l-156.185-270.316c-18.622-31.835-28.231-68.48-28.231-105.123 0-115.936 94.31-210.246 210.246-210.246s210.246 94.31 210.246 210.246c0 36.641-9.611 73.288-28.231 105.123z" />
<glyph unicode="&#xe918;" d="M582.281 763.969l-104.522 182.213c-5.404 9.011-15.618 13.818-25.828 13.818s-20.426-4.808-25.83-13.818l-104.522-182.213c-12.617-22.827-19.825-48.657-19.825-75.088 0-82.897 67.279-150.176 150.176-150.176s150.176 67.279 150.176 150.176c0.002 26.431-7.206 52.261-19.823 75.088z" />
<glyph unicode="&#xe919;" d="M453.735 251.369c18.622-31.835 28.231-68.48 28.231-105.123 0-115.936-94.31-210.246-210.246-210.246v599.503c10.21 0 20.426-4.808 25.83-13.818l156.185-270.316z" />
<glyph unicode="&#xe91a;" d="M582.281 763.967c12.617-22.827 19.825-48.657 19.825-75.088 0-82.897-67.279-150.176-150.176-150.176v421.295c10.21 0 20.426-4.808 25.83-13.818l104.52-182.213z" />
<glyph unicode="&#xe91b;" d="M962.528 326.455c0-115.936-94.31-210.246-210.246-210.246v599.503c10.21 0 20.426-4.808 25.83-13.818l156.185-270.316c18.62-31.837 28.231-68.482 28.231-105.123z" />
<glyph unicode="&#xe928;" glyph-name="pdf2" d="M472.178 641.422v0c5.689 0 5.689 0 0 0 5.689 22.756 11.378 34.133 11.378 51.2v11.378c5.689 28.444 5.689 51.2 0 56.889 0 0 0 0 0 5.689l-5.689 5.689c0 0 0-5.689-5.689-5.689-11.378-34.133-11.378-73.956 0-125.156v0zM301.511 248.889c-11.378-5.689-22.756-11.378-28.444-17.067-39.822-34.133-68.267-73.953-73.956-91.022v0 0 0c34.133 5.689 68.267 39.822 102.4 108.089 5.689 0 5.689 0 0 0 5.689 0 0 0 0 0zM824.889 334.222c-5.689 5.689-28.444 22.756-108.089 22.756-5.689 0-5.689 0-11.378 0v0c0 0 0 0 0-5.689 39.822-17.067 79.644-28.444 108.089-28.444 5.689 0 5.689 0 11.378 0v0h5.689c0 0 0 0 0 5.689v0c0 0-5.689 0-5.689 5.689zM910.222 960h-796.444c-62.578 0-113.778-51.2-113.778-113.778v-796.444c0-62.578 51.2-113.778 113.778-113.778h796.444c62.578 0 113.778 51.2 113.778 113.778v796.444c0 62.578-51.2 113.778-113.778 113.778zM847.644 288.711c-11.38-5.689-28.444-11.378-51.2-11.378-45.511 0-113.778 11.378-170.667 39.822-96.711-11.378-170.667-22.753-227.556-45.509-5.689 0-5.689 0-11.378-5.689-68.267-119.469-125.156-176.358-170.667-176.358-11.378 0-17.067 0-22.756 5.691l-28.444 17.064v5.689c-5.689 11.38-5.689 17.067-5.689 28.444 5.689 28.444 39.822 79.644 108.089 119.469 11.378 5.689 28.444 17.064 51.2 28.444 17.067 28.444 34.133 62.578 56.889 102.398 28.444 56.889 45.511 113.778 62.578 164.978v0c-22.756 68.267-34.133 108.089-11.378 187.733 5.689 22.756 22.756 45.511 45.511 45.511h11.378c11.378 0 22.756-5.689 34.133-11.378 39.824-39.822 22.756-130.844 0-204.8 0-5.689 0-5.689 0-5.689 22.756-62.578 56.889-113.778 91.022-147.911 17.067-11.378 28.444-22.756 51.2-34.133 28.444 0 51.2 5.689 73.956 5.689 68.267 0 113.778-11.378 130.842-39.822 5.691-11.38 5.691-22.756 5.691-34.133-5.689-5.689-11.378-22.756-22.756-34.133zM477.867 510.578c-11.378-39.822-34.133-85.333-56.889-136.533-11.378-22.753-22.756-39.822-34.133-62.578h11.378c73.956 28.444 142.222 45.511 187.733 51.2-11.38 5.689-17.067 11.378-22.756 17.067-28.444 34.133-62.578 79.644-85.333 130.844z" />
<glyph unicode="&#xe92b;" glyph-name="inicio3" d="M139.237 17.253c0 0-0.91-22.89 21.45-22.89 27.817 0 258.122 0.303 258.122 0.303l0.379 211.508c0 0-3.638 34.866 30.205 34.866h107.099c40.020 0 37.557-34.866 37.557-34.866l-0.455-210.826c0 0 218.367 0 252.665 0 28.385 0 27.097 28.499 27.097 28.499v389.931l-356.088 316.75-378.031-316.75c0 0 0-396.525 0-396.525zM0 443.263c0 0 32.099-59.159 102.097 0l418.317 353.89 392.205-351.692c81.026-58.438 111.382 0 111.382 0l-503.587 456.176-520.413-458.375zM903.106 797.987h-100.884l0.417-122.334 100.467-85.232z" />
<glyph unicode="&#xe92e;" d="M512 960c-281.4 0-512-230.6-512-512s230.6-512 512-512 512 230.6 512 512-230.6 512-512 512z" />
<glyph unicode="&#xe92f;" d="M1024 448c0-281.4-230.6-512-512-512v1024c281.4 0 512-230.6 512-512z" />
<glyph unicode="&#xe930;" d="M872 448c0-198.6-161.4-360-360-360s-360 161.4-360 360c0 78.6 25.198 153 72 215.998 11.4 15 28.798 24.002 48 24.002 13.198 0 25.8-4.2 35.998-12 26.4-19.802 31.802-57.598 12-83.998-31.196-42.002-47.998-91.802-47.998-144.002 0-132.602 107.398-240 240-240s240 107.398 240 240c0 52.2-16.802 102-48 144.002-19.802 26.4-14.4 63.6 12 83.998 10.198 7.8 22.8 12 35.998 12 19.2 0 36.6-9.002 48-24.002 46.804-62.998 72.002-137.398 72.002-215.998z" />
<glyph unicode="&#xe931;" d="M572 748v-300c0-33-27-60-60-60s-60 27-60 60v300c0 33 27 60 60 60s60-27 60-60z" />
<glyph unicode="&#xe932;" d="M747.414 723.461l-381.195 6.016c-211.734-7.375-366.219-48.742-366.219-280.859 0-282.766 229.234-441.375 512-441.375s512 158.609 512 441.375c0 197.867-112.305 257.078-276.586 274.844z" />
<glyph unicode="&#xe933;" d="M512 77.859c-9.742 0-17.656 7.898-17.656 17.656 0 9.766 7.914 17.656 17.656 17.656 65.398 0 285.539 13.328 372.664 184.852 4.414 8.664 15.047 12.125 23.75 7.734 8.688-4.414 12.141-15.063 7.734-23.75-64.961-127.82-216.031-204.148-404.148-204.148z" />
<glyph unicode="&#xe934;" d="M925.961 342.672c-1.344 0-2.703 0.156-4.063 0.461-9.5 2.242-15.375 11.742-13.133 21.234 6.164 26.258 9.305 54.594 9.305 84.25 0 9.766 7.906 17.656 17.656 17.656 9.742 0 17.656-7.891 17.656-17.656 0-32.375-3.445-63.445-10.258-92.336-1.906-8.117-9.164-13.609-17.164-13.609z" />
<glyph unicode="&#xe935;" d="M526.727 878.297l-32.383-129.539s-141.242 35.313-194.203 141.242c0 0-15.734-94.367 86.398-179.18 7.258-6.023 4.891-17.555-4.125-20.25-41.367-12.398-117.602-52.102-64.617-171.328 0 0 52.961 123.586 194.203 123.586 0 0 123.586-17.656 141.242-158.898 0 0 93.781 93.789-12.781 178.406-7.68 6.109-4.539 18.398 5.063 20.445 50.375 10.68 153.352 43.734 166.617 136.602 0 0-229.523-105.938-247.172-88.281l31.125 140.094c2.148 9.641-5.195 18.805-15.078 18.805h-39.281c-7.102 0-13.281-4.82-15.008-11.703z" />
<glyph unicode="&#xe937;" d="M512 388v420c33 0 60-27 60-60v-300c0-33-27-60-60-60z" />
<glyph unicode="&#xe938;" d="M872 448c0-198.6-161.4-360-360-360v120c132.602 0 240 107.398 240 240 0 52.2-16.802 102-48 144.002-19.802 26.4-14.4 63.6 12 83.998 10.198 7.8 22.8 12 35.998 12 19.2 0 36.6-9.002 48-24.002 46.804-62.998 72.002-137.398 72.002-215.998z" />
<glyph unicode="&#xe940;" d="M548.766 213.266v640.828c0 58.492-47.414 105.906-105.906 105.906s-105.906-47.414-105.906-105.906v-640.828c-65.391-58.484-70.992-158.914-12.5-224.313 58.492-65.391 158.922-70.992 224.313-12.5 65.398 58.492 70.992 158.922 12.5 224.313-3.93 4.398-8.102 8.57-12.5 12.5z" />
<glyph unicode="&#xe941;" d="M478.164 175.898v678.195c0 19.5-15.805 35.305-35.305 35.305-19.492 0-35.297-15.805-35.297-35.305v-678.195c-44.68-19.492-65.086-71.516-45.586-116.188 19.492-44.672 71.516-65.078 116.188-45.586 44.672 19.5 65.078 71.516 45.586 116.188-8.906 20.406-25.188 36.688-45.586 45.586z" />
<glyph unicode="&#xe942;" d="M442.859 6.836c48.742 0.102 88.172 39.703 88.070 88.445-0.070 34.953-20.766 66.57-52.766 80.617v448.727h-70.602v-448.727c-44.633-19.594-64.922-71.664-45.32-116.289 14.047-32 45.664-52.695 80.617-52.773z" />
<glyph unicode="&#xe943;" d="M637.023 324.562h52.953v-35.305h-52.953z" />
<glyph unicode="&#xe944;" glyph-name="contacto1" d="M192 960v-1024h768v1024h-768zM576 703.67c70.51 0 127.67-57.16 127.67-127.67s-57.16-127.67-127.67-127.67-127.67 57.16-127.67 127.67 57.16 127.67 127.67 127.67v0zM768 192h-384v64c0 70.696 57.306 128 128 128v0h128c70.696 0 128-57.304 128-128v-64zM64 896h96v-192h-96v192zM64 640h96v-192h-96v192zM64 384h96v-192h-96v192zM64 128h96v-192h-96v192z" />
<glyph unicode="&#xe945;" d="M637.023 430.469h105.906v-35.305h-105.906z" />
<glyph unicode="&#xe946;" d="M637.023 536.375h52.953v-35.305h-52.953z" />
<glyph unicode="&#xe947;" d="M637.023 642.281h105.906v-35.305h-105.906z" />
<glyph unicode="&#xe949;" d="M637.023 748.187h52.953v-35.305h-52.953z" />
<glyph unicode="&#xe94a;" d="M637.023 854.094h105.906v-35.305h-105.906z" />
<glyph unicode="&#xe94b;" d="M442.859 59.789c-19.492 0-35.297 15.813-35.297 35.305h35.297z" />
<glyph unicode="&#xe96c;" d="M960 576v-64.32c19.36-14.72 32-37.6 32-63.68 0-49.76-45.44-88.96-97.12-78.24-31.040 6.4-55.84 32.16-61.44 63.36-5.92 32 7.68 61.12 30.56 78.56v368.32c0 13.28 5.44 25.28 14.080 33.92s20.64 14.080 33.92 14.080c26.56 0 48-21.44 48-48v-304z" />
<glyph unicode="&#xe96d;" d="M708.48 753.44c13.92-33.44 34.88-61.12 59.52-81.44-24.64-20.32-45.6-48-59.52-81.44-13.76-33.28-18.56-67.84-15.52-99.52-31.68 3.040-66.24-1.76-99.52-15.52-33.44-13.92-61.12-34.88-81.44-59.52-20.32 24.64-48 45.6-81.44 59.52-33.28 13.76-67.84 18.56-99.52 15.52 3.040 31.68-1.76 66.24-15.52 99.52-13.92 33.44-34.88 61.12-59.52 81.44 24.64 20.32 45.6 48 59.52 81.44 13.76 33.44 18.56 67.84 15.52 99.52 31.68-3.040 66.24 1.76 99.52 15.52 33.44 13.92 61.12 34.88 81.44 59.52 20.32-24.64 48-45.6 81.44-59.52 33.44-13.76 67.84-18.56 99.52-15.52-3.040-31.68 1.76-66.080 15.52-99.52z" />
<glyph unicode="&#xe96e;" d="M656 672c0-79.529-64.471-144-144-144s-144 64.471-144 144c0 79.529 64.471 144 144 144s144-64.471 144-144z" />
<glyph unicode="&#xe96f;" d="M496.48 32.64l28.32 37.76c12.16 16.16 31.040 25.6 51.2 25.6h232.48c24.16 0 46.4-13.76 57.28-35.36l46.24-92.64h-464l48.48 64.64z" />
<glyph unicode="&#xe970;" d="M848 320v-16c0-44.16-35.84-80-80-80h-80v16c0 44.16 35.84 80 80 80h80z" />
<glyph unicode="&#xe971;" d="M688 208v-16h-80c-44.16 0-80 35.84-80 80v16h80c44.16 0 80-35.84 80-80z" />
<glyph unicode="&#xe972;" d="M496.48 32.64l-48.48-64.64h-336l46.24 92.64c10.88 21.6 33.12 35.36 57.28 35.36h200.8c20 0 38.72-9.28 50.88-25.12l29.28-38.24z" />
<glyph unicode="&#xe973;" d="M464 320v-16c0-44.16-35.84-80-80-80h-80v16c0 44.16 35.84 80 80 80h80z" />
<glyph unicode="&#xe974;" d="M304 208v-16h-80c-44.16 0-80 35.84-80 80v16h80c44.16 0 80-35.84 80-80z" />
<glyph unicode="&#xe975;" d="M16-16h32v-32h-32v32z" />
<glyph unicode="&#xe976;" d="M976-16h32v-32h-32v32z" />
<glyph unicode="&#xe977;" d="M880 67.776c-13.664 27.28-41.056 44.224-71.552 44.224h-104.448v96h64c52.944 0 96 43.056 96 96v32h-96c-41.184 0-76.288-26.112-89.888-62.624-17.536 18.784-42.448 30.624-70.112 30.624h-96v-32c0-52.944 43.056-96 96-96h64v-64h-96c-25.024 0-48.976-11.952-64-32l-15.68-20.912-16.384 21.456c-15.024 19.712-38.816 31.456-63.6 31.456h-96.336v96h64c52.944 0 96 43.056 96 96v32h-96c-41.184 0-76.288-26.112-89.888-62.624-17.536 18.784-42.448 30.624-70.112 30.624h-96v-32c0-52.944 43.056-96 96-96h64v-64h-72.448c-30.496 0-57.888-16.944-71.552-44.224l-41.888-83.776h-22.112v-32h864v32h-22.112l-41.888 83.776zM768 304h64c0-35.296-28.704-64-64-64h-64c0 35.296 28.704 64 64 64zM608 208c-35.296 0-64 28.704-64 64h64c35.296 0 64-28.704 64-64h-64zM384 304h64c0-35.296-28.704-64-64-64h-64c0 35.296 28.704 64 64 64zM224 208c-35.296 0-64 28.704-64 64h64c35.296 0 64-28.704 64-64h-64zM537.6 60.8c9.024 12.032 23.376 19.2 38.4 19.2h232.448c18.288 0 34.736-10.176 42.928-26.528l34.736-69.472h-406.112l57.6 76.8zM172.624 53.472c8.192 16.352 24.64 26.528 42.928 26.528h200.8c14.88 0 29.136-7.040 38.16-18.864l21.872-28.656-36.384-48.48h-302.112l34.736 69.472z" />
<glyph unicode="&#xe978;" d="M576 48h32v-32h-32v32z" />
<glyph unicode="&#xe979;" d="M752 48h32v-32h-32v32z" />
<glyph unicode="&#xe97a;" d="M208 48h32v-32h-32v32z" />
<glyph unicode="&#xe97b;" d="M352 48h32v-32h-32v32z" />
<glyph unicode="&#xe97c;" d="M1008 448c0 27.408-11.568 52.928-32 71.184v360.816c0 35.296-28.704 64-64 64s-64-28.704-64-64v-360.832c-24.896-22.336-36.464-55.696-30.352-89.008 6.928-37.744 36.64-68.32 73.968-76.048 6.752-1.392 13.536-2.080 20.256-2.080 22.064 0 43.44 7.44 60.704 21.488 22.496 18.32 35.424 45.472 35.424 74.48zM952.352 398.336c-15.216-12.384-34.48-16.992-54.256-12.88-24.72 5.104-44.4 25.408-48.992 50.48-4.464 24.4 4.704 47.936 24.544 62.944l6.352 4.8v376.32c0 17.648 14.352 32 32 32s32-14.352 32-32v-32h-32v-32h32v-32h-32v-32h32v-32h-32v-32h32v-32h-32v-32h32v-32h-32v-32h32v-56.336l6.352-4.8c16.304-12.304 25.648-30.848 25.648-50.864 0-19.344-8.608-37.44-23.648-49.664z" />
<glyph unicode="&#xe97d;" d="M512 512c88.224 0 160 71.776 160 160s-71.776 160-160 160-160-71.776-160-160 71.776-160 160-160zM512 800c70.576 0 128-57.424 128-128s-57.424-128-128-128-128 57.424-128 128 57.424 128 128 128z" />
<glyph unicode="&#xe97e;" d="M300.72 584.48c12.336-29.744 17.28-61.552 14.336-91.952l-1.872-19.344 19.344 1.872c30.464 2.944 62.224-2.016 91.952-14.336 29.744-12.32 55.728-31.296 75.152-54.896l12.368-14.992 12.352 15.008c19.424 23.6 45.408 42.576 75.152 54.896 29.728 12.336 61.456 17.28 91.952 14.336l19.344-1.872-1.872 19.344c-2.944 30.4 2.016 62.208 14.336 91.952s31.296 55.728 54.896 75.152l15.008 12.352-15.008 12.352c-23.6 19.424-42.576 45.408-54.896 75.152-12.336 29.744-17.28 61.552-14.336 91.952l1.872 19.344-19.344-1.872c-30.496-2.912-62.224 2.032-91.952 14.336-29.744 12.32-55.728 31.296-75.152 54.896l-12.352 15.008-12.352-15.008c-19.424-23.6-45.408-42.576-75.152-54.896-29.728-12.32-61.488-17.248-91.952-14.336l-19.344 1.872 1.872-19.344c2.944-30.4-2.016-62.208-14.336-91.952s-31.296-55.728-54.896-75.152l-15.008-12.352 15.008-12.352c23.584-19.424 42.56-45.408 54.88-75.168zM330.288 747.264c11.872 28.64 17.856 59.008 17.6 88.864 29.648 0.032 60.208 5.712 88.864 17.6 28.64 11.856 54.336 29.104 75.264 50.384 20.928-21.28 46.624-38.528 75.264-50.384 28.64-11.872 58.912-17.488 88.864-17.6-0.272-29.84 5.712-60.224 17.6-88.864 11.856-28.64 29.104-54.352 50.384-75.264-21.28-20.928-38.528-46.624-50.384-75.264-11.872-28.64-17.856-59.008-17.6-88.864-29.872 0.208-60.224-5.712-88.864-17.6-28.64-11.856-54.336-29.104-75.264-50.384-20.928 21.28-46.624 38.528-75.264 50.384-28.048 11.632-57.76 17.616-87.008 17.616-0.624 0-1.232-0.016-1.856-0.016 0.272 29.824-5.712 60.224-17.6 88.864-11.856 28.64-29.104 54.336-50.384 75.264 21.264 20.928 38.512 46.624 50.384 75.264z" />
<glyph unicode="&#xe97f;" d="M240 480h32v-32h-32v32z" />
<glyph unicode="&#xe980;" d="M208 416h32v-32h-32v32z" />
<glyph unicode="&#xe981;" d="M352 448h32v-32h-32v32z" />
<glyph unicode="&#xe982;" d="M704 432h32v-32h-32v32z" />
<glyph unicode="&#xe983;" d="M640 400h32v-32h-32v32z" />
<glyph unicode="&#xe984;" d="M512.475 778.322c-98.801 0-187.21-43.601-247.744-112.341v-435.959c60.53-68.74 148.943-112.341 247.744-112.341 182.437 0 330.322 147.885 330.322 330.322s-147.889 330.319-330.322 330.319z" />
<glyph unicode="&#xe985;" d="M182.153 164.879v696.026h-33.033v-696.022c-28.423-7.384-49.549-33.016-49.549-63.718 0-36.435 29.63-66.066 66.066-66.066s66.066 29.63 66.066 66.066c-0.003 30.699-21.126 56.334-49.549 63.714zM165.636 68.128c-18.216 0-33.033 14.813-33.033 33.033s14.813 33.033 33.033 33.033 33.033-14.813 33.033-33.033-14.817-33.033-33.033-33.033z" />
<glyph unicode="&#xe986;" d="M448.771 852.893l28.309-17.012 35.395 58.997 35.395-58.997 28.306 17.012-63.7 106.167z" />
<glyph unicode="&#xe987;" d="M512.475 1.122l-35.395 58.997-28.309-17.012 63.704-106.167 63.7 106.167-28.306 17.012z" />
<glyph unicode="&#xe988;" d="M349.163 801.609l16.038 28.871-89.748 49.83c-15.146 46.195-58.616 79.69-109.816 79.69-63.735 0-115.615-51.877-115.615-115.612v-625.517c-31.58-31.018-49.549-73.495-49.549-117.71 0-91.069 74.092-165.161 165.161-165.161 69.368 0 128.76 43.043 153.202 103.771l46.362 25.749-16.038 28.871-19.322-10.735c0.61 5.764 0.957 11.595 0.957 17.508 0 44.215-17.97 86.692-49.549 117.71v620.46l67.918-37.726zM297.765 101.161c0-72.853-59.275-132.128-132.128-132.128s-132.128 59.275-132.128 132.128c0 37.344 16.069 73.166 44.066 98.27l5.484 4.922v28.937h33.033v33.033h-33.033v49.549h33.033v33.033h-33.033v49.549h33.033v33.033h-33.033v49.549h33.033v33.033h-33.033v49.549h33.033v33.033h-33.033v49.542h33.033v33.033h-33.033v49.546h33.033v33.033h-33.033v49.549h33.033v33.033h-33.033c0 45.536 37.046 82.582 82.582 82.582s82.582-37.046 82.582-82.582v-640.032l5.484-4.922c27.99-25.108 44.059-60.929 44.059-98.273z" />
<glyph unicode="&#xe989;" d="M735.902 61.011l-60.121 33.38-16.034-28.871 108.266-60.121 2.081 123.821-33.033 0.548z" />
<glyph unicode="&#xe98a;" d="M866.084 284.687l33.38-60.118-68.757-1.155 0.545-33.033 123.821 2.081-60.118 108.262z" />
<glyph unicode="&#xe98b;" d="M917.368 384.296l106.164 63.704-106.164 63.704-17.012-28.309 58.997-35.395-58.997-35.395z" />
<glyph unicode="&#xe98c;" d="M866.084 611.313l28.871-16.038 60.118 108.262-123.821 2.081-0.545-33.033 68.757-1.155z" />
<glyph unicode="&#xe98d;" d="M659.746 830.48l16.034-28.871 60.121 33.38 1.158-68.757 33.033 0.545-2.081 123.821z" />
<glyph unicode="&#xe98e;" d="M460.563 945.445c-48.969 31.484-171.68 2.602-185.516-0.797-8.258-2.023-13.484-10.156-11.898-18.516 2.648-13.992 27.297-137.625 76.273-169.109 18.695-12.023 39.656-17.766 60.391-17.766 36.867 0.008 73.016 18.156 94.391 51.398 33.398 51.945 18.312 121.383-33.641 154.789z" />
<glyph unicode="&#xe98f;" d="M415.859 771.281c-20.734 0-41.695 5.742-60.398 17.766-42.039 27.031-66.156 121.969-73.82 157.156-3.047-0.695-5.297-1.234-6.594-1.555-8.258-2.023-13.484-10.156-11.898-18.516 2.648-13.992 27.297-137.625 76.273-169.109 18.695-12.023 39.656-17.766 60.391-17.766 36.867 0.008 73.016 18.156 94.391 51.398 5.555 8.641 9.734 17.773 12.664 27.133-21.68-30.109-56.008-46.5-91.008-46.508z" />
<glyph unicode="&#xe990;" d="M771.211 845.57c-13.953 2.852-137.711 26.859-185.398-6.547-50.586-35.422-62.922-105.398-27.492-155.984 21.766-31.078 56.562-47.719 91.906-47.719 22.18 0 44.578 6.562 64.086 20.227 47.687 33.398 67.437 157.906 69.531 172 1.25 8.406-4.297 16.328-12.633 18.023z" />
<glyph unicode="&#xe991;" d="M771.211 845.57c-0.18 0.039-0.398 0.086-0.625 0.125-7.414-39.469-27.711-126.383-66.359-153.453-19.508-13.664-41.906-20.227-64.094-20.227-35.336 0-70.133 16.641-91.898 47.711-3.734 5.328-6.906 10.883-9.586 16.578 1.797-18.57 8.227-36.93 19.672-53.266 21.766-31.078 56.562-47.719 91.898-47.719 22.187 0 44.586 6.562 64.094 20.227 47.687 33.398 67.43 157.906 69.531 172 1.25 8.406-4.297 16.328-12.633 18.023z" />
<glyph unicode="&#xe992;" d="M719.531 787.898c-2.141 8.57-10.812 13.789-19.398 11.641-6.203-1.547-116.266-29.867-172.133-95-0.18 57.578-30.187 108.945-86.82 148.586-41.633 29.148-82.844 41.703-84.578 42.219-8.469 2.539-17.383-2.266-19.922-10.727s2.266-17.383 10.727-19.922c1.484-0.445 148.602-45.906 148.602-160.68v-192.008c0-8.836 7.164-16 16-16s16 7.164 16 16v112.008c0 98.18 178.094 144.031 179.891 144.484 8.57 2.148 13.781 10.828 11.633 19.398z" />
<glyph unicode="&#xe993;" d="M780.258 330.305c-3.039 3.617-7.523 5.703-12.242 5.703h-512.016c-4.719 0-9.203-2.086-12.242-5.703-3.039-3.609-4.328-8.383-3.523-13.039l64.008-368.008c1.328-7.664 7.984-13.258 15.758-13.258h384.016c7.773 0 14.43 5.594 15.758 13.258l64.008 368.008c0.805 4.656-0.484 9.43-3.523 13.039z" />
<glyph unicode="&#xe994;" d="M304.242 253.266c-1.68 9.641 5.984 18.742 15.758 18.742h455.906l7.875 45.258c0.805 4.656-0.484 9.43-3.523 13.039-3.039 3.617-7.523 5.703-12.242 5.703h-512.016c-4.719 0-9.203-2.086-12.242-5.703-3.039-3.609-4.328-8.383-3.523-13.039l64.008-368.008c1.328-7.664 7.984-13.258 15.758-13.258h39.414z" />
<glyph unicode="&#xe995;" d="M773.070 447.188c-37.102 12.367-70.047 32.727-101.906 52.414-48.062 29.703-97.766 60.414-159.156 60.414s-111.094-30.711-159.156-60.414c-31.859-19.687-64.805-40.047-101.906-52.414-7.445-2.477-11.992-9.992-10.734-17.742 1.258-7.742 7.945-13.437 15.789-13.437h512.016c7.844 0 14.539 5.695 15.789 13.437 1.258 7.75-3.289 15.266-10.734 17.742z" />
<glyph unicode="&#xe996;" d="M304.211 429.453c-1.258 7.742 3.289 15.258 10.727 17.742 37.109 12.367 70.055 32.719 101.914 52.406 39.43 24.367 79.969 49.406 127.156 57.609-10.328 1.805-20.977 2.805-32 2.805-61.398 0-111.094-30.711-159.156-60.414-31.867-19.68-64.805-40.039-101.914-52.406-7.445-2.484-11.992-10-10.727-17.742 1.25-7.75 7.945-13.445 15.789-13.445h64c-7.844 0-14.539 5.695-15.789 13.445z" />
<glyph unicode="&#xe997;" d="M816.016 448.016h-608.016c-8.836 0-16-7.164-16-16.008v-112c0-8.836 7.164-16 16-16h608.016c8.836 0 16 7.164 16 16v112c0 8.844-7.164 16.008-16 16.008z" />
<glyph unicode="&#xe998;" d="M523.43 379.211c-6.187 6.305-16.664 6.305-22.844 0-11.93-12.156-116.578-120.727-116.578-187.211 0-70.578 57.422-128 128-128s128 57.422 128 128c0 66.484-104.648 175.055-116.578 187.211z" />
<glyph unicode="&#xe999;" d="M544.008 80.070c-70.578 0-128 57.422-128 128.008 0 55.445 72.805 140.18 103.883 173.82-6.133 3.422-14.187 2.531-19.305-2.687-11.93-12.156-116.578-120.727-116.578-187.211 0-70.578 57.422-128 128-128 27 0 52.055 8.422 72.727 22.75-12.805-4.305-26.492-6.68-40.727-6.68z" />
<glyph unicode="&#xe99a;" d="M464.008 128.008c-4.094 0-8.195 1.562-11.312 4.68-6.25 6.25-6.25 16.383 0 22.633l96 96c6.25 6.25 16.375 6.25 22.625 0s6.25-16.375 0-22.625l-96-96.008c-3.125-3.117-7.219-4.68-11.312-4.68z" />
<glyph unicode="&#xe99b;" d="M559.008 160.008c0-8.289-6.719-15-15-15s-15 6.711-15 15c0 8.281 6.719 15 15 15s15-6.719 15-15z" />
<glyph unicode="&#xe99c;" d="M496.008 223.008c0-8.289-6.719-15-15-15-8.289 0-15 6.711-15 15 0 8.281 6.711 15 15 15 8.281 0 15-6.719 15-15z" />
<glyph unicode="&#xe99d;" d="M816 96v-64c0-35.36-28.64-64-64-64h-480c-35.36 0-64 28.64-64 64v64h608z" />
<glyph unicode="&#xe99e;" d="M816 864v-64h-608v64c0 35.36 28.64 64 64 64h480c35.36 0 64-28.64 64-64z" />
<glyph unicode="&#xe99f;" d="M816 800v-704h-608v704h608z" />
<glyph unicode="&#xe9a0;" d="M272 736h480v-576h-480v576z" />
<glyph unicode="&#xe9a1;" d="M608 320h64c0-26.56-10.72-50.56-28.16-67.84-17.28-17.44-41.28-28.16-67.84-28.16h-64c0 26.56 10.72 50.56 28.16 67.84 17.28 17.44 41.28 28.16 67.84 28.16z" />
<glyph unicode="&#xe9a2;" d="M512 160h-64c-26.56 0-50.56 10.72-67.84 28.16-17.44 17.28-28.16 41.28-28.16 67.84h64c26.56 0 50.56-10.72 67.84-28.16 17.44-17.28 28.16-41.28 28.16-67.84z" />
<glyph unicode="&#xe9a3;" d="M608 464h64c0-26.56-10.72-50.56-28.16-67.84-17.28-17.44-41.28-28.16-67.84-28.16h-64c0 26.56 10.72 50.56 28.16 67.84 17.28 17.44 41.28 28.16 67.84 28.16z" />
<glyph unicode="&#xe9a4;" d="M512 320h-64c-26.56 0-50.56 10.72-67.84 28.16-17.44 17.28-28.16 41.28-28.16 67.84h64c26.56 0 50.56-10.72 67.84-28.16 17.44-17.28 28.16-41.28 28.16-67.84z" />
<glyph unicode="&#xe9a5;" d="M592 560c0-48-48-80-80-80s-80 32-80 80 80 112 80 112 80-64 80-112z" />
<glyph unicode="&#xe9a6;" d="M752 944h-480c-44.112 0-80-35.888-80-80v-832c0-44.112 35.888-80 80-80h480c44.112 0 80 35.888 80 80v832c0 44.112-35.888 80-80 80zM272 912h480c26.464 0 48-21.536 48-48v-48h-576v48c0 26.464 21.536 48 48 48zM800 784v-672h-576v672h576zM752-16h-480c-26.464 0-48 21.536-48 48v48h576v-48c0-26.464-21.536-48-48-48z" />
<glyph unicode="&#xe9a7;" d="M448 880h128v-32h-128v32z" />
<glyph unicode="&#xe9a8;" d="M608 880h32v-32h-32v32z" />
<glyph unicode="&#xe9a9;" d="M384 880h32v-32h-32v32z" />
<glyph unicode="&#xe9aa;" d="M464 48h96v-32h-96v32z" />
<glyph unicode="&#xe9ab;" d="M448 144h320v608h-512v-608h192zM448 176c-38.64 0-70.96 27.536-78.384 64h46.384c38.64 0 70.96-27.536 78.384-64h-46.384zM288 720h448v-544h-208v32h48c61.76 0 112 50.256 112 112v16h-80c-31.328 0-59.648-12.96-80-33.776v49.776h48c61.76 0 112 50.256 112 112v16h-80c-31.328 0-59.648-12.96-80-33.776v19.664c36.96 8.224 80 43.12 80 94.112 0 54.128-77.2 117.456-86 124.496l-10 8-10-8c-8.8-7.040-86-70.368-86-124.496 0-50.992 43.040-85.888 80-94.112v-67.664c-20.352 20.816-48.672 33.776-80 33.776h-80v-16c0-61.744 50.24-112 112-112h48v-65.776c-20.352 20.816-48.672 33.776-80 33.776h-80v-16c0-31.328 12.96-59.648 33.776-80h-81.776v544zM529.616 240c7.424 36.464 39.76 64 78.384 64h46.384c-7.424-36.464-39.76-64-78.384-64h-46.384zM512 496c-22.56 0-64 24.304-64 64 0 26.048 35.92 66.352 64 91.088 28.080-24.72 64-65.024 64-91.088 0-39.696-41.44-64-64-64zM529.616 384c7.424 36.464 39.76 64 78.384 64h46.384c-7.424-36.464-39.76-64-78.384-64h-46.384zM494.384 336h-46.384c-38.64 0-70.96 27.536-78.384 64h46.384c38.64 0 70.96-27.536 78.384-64z" />
<glyph unicode="&#xe9be;" d="M0 296.317h1024v-274.983h-1024z" />
<glyph unicode="&#xe9bf;" d="M508.8 296.317h515.2v-274.983h-515.2z" />
<glyph unicode="&#xe9c0;" d="M139.567 497.092c-29.133 56.167-73.008 91.192-98.008 78.225-24.992-12.967-21.642-69.008 7.483-125.167 29.133-56.167 73.008-91.192 98.008-78.225s21.642 69.008-7.483 125.167z" />
<glyph unicode="&#xe9c1;" d="M285.9 575.317c-24.992 12.958-68.875-22.058-98-78.225-29.133-56.167-32.483-112.2-7.483-125.167s68.875 22.058 98 78.217c29.133 56.167 32.483 112.208 7.483 125.175z" />
<glyph unicode="&#xe9c2;" d="M486.658 497.1c-29.133 56.167-73.008 91.183-98.008 78.225-25-12.967-21.65-69.008 7.483-125.175 29.125-56.158 73.008-91.183 98-78.217 25 12.967 21.65 69-7.475 125.167z" />
<glyph unicode="&#xe9c3;" d="M632.983 575.325c-25 12.967-68.875-22.058-98.008-78.225-29.125-56.158-32.475-112.2-7.483-125.167 25-12.967 68.875 22.058 98.008 78.225 29.133 56.158 32.483 112.2 7.483 125.167z" />
<glyph unicode="&#xe9c4;" d="M133.55 659.625h60.158v-536.742h-60.158z" />
<glyph unicode="&#xe9c5;" d="M163.842 634.883c-58.242 0-105.392 47.142-105.392 105.383v134.4h210.567v-134.4c0-58.242-47.15-105.383-105.175-105.383z" />
<glyph unicode="&#xe9c6;" d="M245.55 673.917c-19.417-23.675-48.858-38.825-81.708-38.825-58.242 0-105.392 47.15-105.392 105.392v134.183s135.9-91.308 187.1-200.75z" />
<glyph unicode="&#xe9c7;" d="M834.133 187.092h60.158v-64.208h-60.158z" />
<glyph unicode="&#xe9c8;" d="M864.217 187.092h30.075v-64.208h-30.075z" />
<glyph unicode="&#xe9c9;" d="M479.575 428.158h60.158v-305.275h-60.158z" />
<glyph unicode="&#xe9ca;" d="M508.8 428.158h31.15v-305.275h-31.15z" />
<glyph unicode="&#xe9cb;" d="M163.842 659.625h30.075v-536.742h-30.075z" />
<glyph unicode="&#xe9cc;" d="M163.842 874.667v-239.575c58.242 0 105.383 47.15 105.383 105.392v134.183c-0.208 0-105.383 0-105.383 0z" />
<glyph unicode="&#xe9cd;" d="M163.842 785.708v-150.617c32.85 0 62.292 15.15 81.708 38.825-19.2 41.175-50.35 79.575-81.708 111.792z" />
<glyph unicode="&#xe9ef;" d="M463.906 483.912h97.071v260.368c0 118.946-96.774 215.72-215.727 215.72-118.946 0-215.72-96.774-215.72-215.72v-148.165h97.071v148.165c0 65.422 53.227 118.657 118.657 118.657 65.422 0 118.649-53.235 118.649-118.657z" />
<glyph unicode="&#xe9f0;" d="M463.906 744.28v-260.368h97.071v260.368c0 62.883-27.055 119.571-70.125 159.040-21.781-15.836-45.555-38.508-66.492-70.68 24.258-21.742 39.547-53.305 39.547-88.36z" />
<glyph unicode="&#xe9f1;" d="M560.977 104.536h-97.071v528.237c0 118.946 96.774 215.72 215.72 215.72s215.72-96.774 215.72-215.72v-241.712h-97.063v241.712c0 65.422-53.235 118.657-118.657 118.657-65.43 0-118.657-53.227-118.657-118.657v-528.237z" />
<glyph unicode="&#xe9f2;" d="M874.095 577.733l-20.149 25.524c-3.641 4.609-10.625 4.609-14.266 0l-20.149-25.524c-4.109-5.203-10.695-7.789-17.25-6.773l-18.274 2.844c-8.719 1.359-15.063-8.094-10.492-15.649l21.274-35.211h104.047l21.266 35.211c4.57 7.555-1.766 17.008-10.492 15.649l-18.274-2.844c-6.547-1.023-13.133 1.57-17.242 6.773z" />
<glyph unicode="&#xe9f3;" d="M958.806 424.881c0-61.852-50.141-111.993-111.993-111.993s-111.985 50.141-111.985 111.993c0 61.852 50.133 111.993 111.985 111.993s111.993-50.141 111.993-111.993z" />
<glyph unicode="&#xe9f4;" d="M205.272 785.554l-20.156 25.524c-3.633 4.609-10.617 4.609-14.258 0l-20.156-25.524c-4.102-5.203-10.695-7.789-17.242-6.773l-18.274 2.844c-8.727 1.359-15.063-8.094-10.492-15.649l21.266-35.211h104.047l21.274 35.211c4.57 7.555-1.766 17.008-10.492 15.649l-18.274-2.844c-6.547-1.016-13.141 1.57-17.242 6.773z" />
<glyph unicode="&#xe9f5;" d="M289.976 632.702c0-61.844-50.141-111.985-111.993-111.985-61.844 0-111.985 50.141-111.985 111.985 0 61.852 50.141 111.993 111.985 111.993 61.852 0 111.993-50.141 111.993-111.993z" />
<glyph unicode="&#xe9f6;" d="M778.462 247.692c-15.977 0-31.391-2.414-45.891-6.898-28.024-8.656-57.86 0.828-77.586 26.133-34.172 43.852-85.344 71.711-142.547 71.711-57.063 0-108.118-27.742-142.274-71.43-18.781-24.016-46.719-34.305-73.391-26.203-14.297 4.344-29.461 6.688-45.18 6.688-85.969 0-155.665-69.774-155.665-155.844s69.696-155.844 155.665-155.844h526.869c85.969 0 155.665 69.774 155.665 155.844 0 86.063-69.696 155.844-155.665 155.844z" />
<glyph unicode="&#xe9f7;" d="M603.649 312.896c-26.961 16.391-58.078 25.742-91.211 25.742-57.063 0-108.118-27.742-142.274-71.43-18.781-24.016-46.719-34.305-73.391-26.203-14.297 4.344-29.461 6.688-45.18 6.688-85.969 0-155.665-69.774-155.665-155.844s69.696-155.844 155.665-155.844h123.899c22.664 72.391 61.164 112.727 66.899 190.813 9.25 125.79 161.079 186.009 161.258 186.079z" />
<glyph unicode="&#xe9f8;" d="M631.93 101.84c0-19.602-15.883-35.485-35.477-35.485s-35.477 15.883-35.477 35.485c0 19.594 15.883 35.477 35.477 35.477s35.477-15.883 35.477-35.477z" />
<glyph unicode="&#xe9f9;" d="M781.587 56.848c0-19.594-15.883-35.477-35.485-35.477-19.594 0-35.477 15.883-35.477 35.477s15.883 35.485 35.477 35.485c19.602 0 35.485-15.891 35.485-35.485z" />
<glyph unicode="&#xe9fa;" d="M0 447.996c0 282.791 229.232 512 511.992 512 282.777 0 512.008-229.211 512.008-512 0-282.76-229.232-511.992-512.008-511.992-282.76 0-511.992 229.232-511.992 511.992z" />
<glyph unicode="&#xe9fb;" d="M883.837 604.707c-21.357-0.047-42.71-0.111-64.067-0.159-48.030 107.686-142.304 185.482-261.387 204.137-132.68 20.785-259.667-40.84-335.387-149.242-33.633-48.142 45.411-93.215 78.757-45.475 103.848 148.675 325.589 135.239 416.709-9.671-19.729-0.045-39.457-0.095-59.188-0.14-5.519-0.017-9.44-2.47-11.865-5.938-3.963-4.247-5.469-10.468-1.319-16.895 37.571-58.304 75.141-116.606 112.72-174.902 6.317-9.797 19.943-9.717 26.203 0.095 37.278 58.486 74.559 116.97 111.837 175.456 6.169 9.669-1.954 22.764-13.015 22.736z" />
<glyph unicode="&#xe9fc;" d="M723.082 284.653c-103.043-147.546-322.186-135.452-414.602 6.293 18.907 0.045 37.814 0.095 56.723 0.14 5.502 0.017 9.417 2.456 11.849 5.913 3.971 4.25 5.486 10.468 1.333 16.918-37.562 58.296-75.135 116.606-112.706 174.894-6.307 9.805-19.941 9.725-26.201-0.095-37.28-58.478-74.568-116.961-111.853-175.447-6.165-9.677 1.957-22.769 13.019-22.738 22.019 0.056 44.037 0.111 66.056 0.165 48.497-105.916 141.947-182.306 259.769-200.763 132.68-20.787 259.667 40.832 335.37 149.242 33.627 48.152-45.415 93.223-78.757 45.477z" />
<glyph unicode="&#xea42;" glyph-name="derecha" d="M512 960c-282.77 0-512-229.23-512-512s229.23-512 512-512 512 229.23 512 512-229.23 512-512 512zM512 32c-229.75 0-416 186.25-416 416s186.25 416 416 416 416-186.25 416-416-186.25-416-416-416zM354.744 253.256l90.512-90.512 285.254 285.256-285.256 285.254-90.508-90.508 194.744-194.746z" />
<glyph unicode="&#xea44;" glyph-name="izquierda" d="M512-64c282.77 0 512 229.23 512 512s-229.23 512-512 512-512-229.23-512-512 229.23-512 512-512zM512 864c229.75 0 416-186.25 416-416s-186.25-416-416-416-416 186.25-416 416 186.25 416 416 416zM669.256 642.744l-90.512 90.512-285.254-285.256 285.256-285.254 90.508 90.508-194.744 194.746z" />
<glyph unicode="&#xea8f;" glyph-name="drive" d="M438 320l-184.6-320h580.6l184.6 320zM992.4 384l-295.6 512h-369.6l295.6-512zM290.2 832l-290.2-502.8 184.8-320 290.2 502.8z" />
<glyph unicode="&#xf0ed;" glyph-name="descargar" horiz-adv-x="1097" d="M731.429 420.571c0 10.286-8 18.286-18.286 18.286h-128v201.143c0 9.714-8.571 18.286-18.286 18.286h-109.714c-9.714 0-18.286-8.571-18.286-18.286v-201.143h-128c-10.286 0-18.286-8.571-18.286-18.286 0-4.571 1.714-9.714 5.143-13.143l201.143-201.143c3.429-3.429 8-5.143 13.143-5.143 4.571 0 9.714 1.714 13.143 5.143l200.571 200.571c3.429 4 5.714 8.571 5.714 13.714zM1097.143 292.571c0-121.143-98.286-219.429-219.429-219.429h-621.714c-141.143 0-256 114.857-256 256 0 99.429 57.714 189.714 147.429 231.429-0.571 8.571-1.143 16.571-1.143 24.571 0 161.714 130.857 292.571 292.571 292.571 118.857 0 225.714-72 270.857-181.714 26.286 22.857 60 35.429 94.857 35.429 80.571 0 146.286-65.714 146.286-146.286 0-28-8-55.429-23.429-78.857 99.429-23.429 169.714-112 169.714-213.714z" />
</font>
</defs>
</svg>
